Coordinates
version=1
nRows=17
nColumns=24
inDegrees=yes

Units are S.I. units (second, meters, Newtons, ...)
Angles are in degrees.

endheader
time	pelvis_tilt	pelvis_list	pelvis_rotation	pelvis_tx	pelvis_ty	pelvis_tz	hip_flexion_r	hip_adduction_r	hip_rotation_r	knee_angle_r	ankle_angle_r	subtalar_angle_r	mtp_angle_r	hip_flexion_l	hip_adduction_l	hip_rotation_l	knee_angle_l	ankle_angle_l	subtalar_angle_l	mtp_angle_l	lumbar_extension	lumbar_bending	lumbar_rotation
      5.63000000	     -1.39498193	      2.61567451	     -5.56221895	      2.42475625	      0.70572985	     -0.27404141	     25.34685702	      0.42783652	      1.28754975	    -63.09904106	     12.08554906	      2.45213179	      0.00000000	      2.85027850	      8.87005365	     23.94063106	     -1.81462590	     -2.29821769	    -33.04642118	      0.00000000	    -15.10375657	     -5.22255803	     -3.16660492
      5.64000000	     -1.60710997	      1.91430918	     -4.81447047	      2.43663766	      0.70680210	     -0.27411156	     26.78284653	      1.14427358	      0.60287747	    -60.58095594	     11.96399982	      0.88633732	      0.00000000	      1.24049477	      7.87710023	     25.01959306	     -0.55544942	     -2.12129039	    -33.27569528	      0.00000000	    -15.18115612	     -4.29407240	     -3.72121541
      5.65000000	     -1.70866763	      1.21951327	     -3.94470965	      2.44847064	      0.70761276	     -0.27434907	     27.88369433	      1.71959939	     -0.16278857	    -57.58714355	     11.70347641	     -0.75883449	      0.00000000	     -0.42223082	      6.87124027	     26.14433546	      0.66766062	     -2.03491573	    -33.63654822	      0.00000000	    -15.44333577	     -3.34905503	     -4.37993879
      5.66000000	     -1.95779995	      0.72087536	     -3.11575568	      2.46010243	      0.70775482	     -0.27440778	     29.03473999	      2.11314756	     -0.73943103	    -54.24494161	     11.14399327	     -2.72644338	      0.00000000	     -1.78778455	      6.04204554	     27.06997467	      1.75027373	     -1.73224815	    -33.68940126	      0.00000000	    -15.56007400	     -2.68788571	     -5.07985840
      5.67000000	     -2.11185147	      0.28146509	     -2.21263352	      2.47171691	      0.70758411	     -0.27460152	     29.86219095	      2.32939732	     -1.34241200	    -50.46079271	     10.51728021	     -4.61142217	      0.00000000	     -3.18769418	      5.27268020	     27.99906656	      2.77319303	     -1.44743012	    -33.84077088	      0.00000000	    -15.82556151	     -2.06596682	     -5.86009002
      5.68000000	     -2.26737288	     -0.01747129	     -1.32296657	      2.48331816	      0.70697767	     -0.27475006	     30.49396788	      2.37204312	     -1.82285066	    -46.28626470	      9.79396071	     -6.40199504	      0.00000000	     -4.49306257	      4.64996965	     28.90244835	      3.66804529	     -1.12457602	    -34.02192915	      0.00000000	    -16.08667570	     -1.63231295	     -6.61632396
      5.69000000	     -2.33997362	     -0.19526170	     -0.43255402	      2.49493600	      0.70605075	     -0.27491826	     30.81820064	      2.25397790	     -2.21389008	    -41.72905882	      9.07941463	     -7.96585823	      0.00000000	     -5.79703454	      4.16787008	     29.83808643	      4.41578912	     -0.80034960	    -34.35909770	      0.00000000	    -16.46638029	     -1.33464534	     -7.40907382
      5.70000000	     -2.37479280	     -0.22926820	      0.42054272	      2.50664561	      0.70475580	     -0.27504281	     30.89558191	      1.99055831	     -2.48119188	    -36.85526937	      8.40256480	     -9.22912398	      0.00000000	     -7.05527971	      3.85375273	     30.80765666	      4.99129150	     -0.43214377	    -34.82317180	      0.00000000	    -16.87280570	     -1.21464180	     -8.16702032
      5.71000000	     -2.62410573	     -0.02120179	      1.25336777	      2.51836385	      0.70282683	     -0.27515076	     31.06029712	      1.49517272	     -2.52899342	    -31.81322525	      7.74393553	    -10.14043072	      0.00000000	     -7.92287508	      3.86074444	     31.80080915	      5.22883837	      0.19032886	    -35.10327026	      0.00000000	    -17.00987217	     -1.39255333	     -8.95170851
      5.72000000	     -2.37396789	      0.16763989	      2.06369988	      2.53044995	      0.70120069	     -0.27521063	     30.43349462	      1.03736237	     -2.52642029	    -26.52785405	      7.26960837	    -10.52029827	      0.00000000	     -9.37164219	      3.77660146	     33.02195168	      5.48678022	      0.57447611	    -35.84083634	      0.00000000	    -17.70535367	     -1.53574515	     -9.67677263
      5.73000000	     -2.23838947	      0.60853236	      2.83464263	      2.54256969	      0.69911919	     -0.27526098	     29.86769598	      0.35588392	     -2.26984478	    -21.33969040	      6.92109430	    -10.50191543	      0.00000000	    -10.55723903	      4.02445672	     34.32448337	      5.39445162	      1.15818798	    -36.46980209	      0.00000000	    -18.25625617	     -1.99149122	    -10.41363328
      5.74000000	     -2.01738442	      1.13464832	      3.54639327	      2.55500686	      0.69690624	     -0.27528263	     29.12203774	     -0.37746792	     -1.83714087	    -16.31647318	      6.74517720	    -10.12092432	      0.00000000	    -11.81750374	      4.37311264	     35.63295076	      5.15614793	      1.82797803	    -37.04753342	      0.00000000	    -18.83933926	     -2.53556347	    -11.15553300
      5.75000000	     -1.75454221	      1.73684848	      4.15885086	      2.56767408	      0.69460080	     -0.27531995	     28.29902865	     -1.15549254	     -1.18485877	    -11.63750995	      6.67731234	     -9.40552857	      0.00000000	    -13.08037034	      4.85544841	     36.86784446	      4.71447397	      2.55637900	    -37.54720868	      0.00000000	    -19.43352158	     -3.13664175	    -11.85865261
      5.76000000	     -1.27633262	      2.28320271	      4.59635045	      2.58071724	      0.69246539	     -0.27516508	     27.22495238	     -1.79012775	     -0.37897067	     -7.41581200	      6.70504016	     -8.54190713	      0.00000000	    -14.62212117	      5.24387052	     38.07508290	      4.26590654	      3.27672174	    -37.96750179	      0.00000000	    -20.20275118	     -3.68712042	    -12.30252706
      5.77000000	     -0.95125561	      2.82584170	      4.96763229	      2.59405239	      0.69018688	     -0.27509630	     26.37364236	     -2.41714227	      0.45487812	     -3.87685486	      6.96983845	     -7.55688131	      0.00000000	    -15.94891666	      5.73163992	     39.02734094	      3.60404381	      4.04621382	    -38.18855035	      0.00000000	    -20.69721633	     -4.19183294	    -12.82374267
      5.78000000	     -0.45304890	      3.19157885	      5.14955323	      2.60777104	      0.68824228	     -0.27484084	     25.39544458	     -2.75958647	      1.31410576	     -1.05785033	      7.32822383	     -6.59142602	      0.00000000	    -17.49352943	      6.03008141	     39.75459456	      2.94980314	      4.86830450	    -38.10048501	      0.00000000	    -21.28794395	     -4.47479274	    -13.13364171
      5.79000000	      0.01461494	      3.42182236	      5.20953438	      2.62185129	      0.68646105	     -0.27450639	     24.52556628	     -2.88720018	      2.21877574	      0.96503236	      7.84336722	     -5.85280464	      0.00000000	    -18.96630961	      6.27415642	     40.10070754	      2.15242554	      5.76908115	    -37.64236836	      0.00000000	    -21.74547428	     -4.59983445	    -13.25592864
